{"title":"Legacy (2010) DvdRip [Xvid] {1337x} -X","uid":6046700,"size":734068736,"categoryP":"video","categoryS":"movies","magnet":"?xt=urn:btih:1200ee052149f382ca867277e88e5b9007c341e9&amp;dn=Legacy+%282010%29+DvdRip+%5BXvid%5D+%7B1337x%7D+-X&amp;tr=udp%3A%2F%2Ftracker.openbittorrent.com%3A80&amp;tr=udp%3A%2F%2Fopen.demonii.com%3A1337&amp;tr=udp%3A%2F%2Ftracker.coppersurfer.tk%3A6969&amp;tr=udp%3A%2F%2Fexodus.desync.com%3A6969","seeders":0,"leechers":0,"uploader":"hiest","files":-1,"time":1292582898,"description":"\nPlot:\n\nBlack Ops operative Malcolm Gray returns home after a botched mission in Eastern Europe. Holed up in a Brooklyn motel room, he is torn between retribution and personal salvation as he mentally unravels. When the walls close in, his story may be all he can leave behind\n\n\nVideo\n\nCodec ID/Hint : XviD\nDuration : 1h 32mn\nBit rate : 940 Kbps\nWidth : 656 pixels\nHeight : 352 pixels\nDisplay aspect ratio : 1.864\nFrame rate : 23.976 fps\nColor space : YUV\nChroma subsampling : 4:2:0\nBit depth : 8 bits\nScan type : Progressive\nBits/(Pixel*Frame) : 0.170\nStream size : 624 MiB (89%)\nWriting library : XviD 57\n\n\nAudio\nID : 1\nFormat : MPEG Audio\nFormat version : Version 1\nFormat profile : Layer 3\nMode : Joint stereo\nMode extension : MS Stereo\nCodec ID : 55\nCodec ID/Hint : MP3\nDuration : 1h 32mn\nBit rate mode : Variable\nBit rate : 102 Kbps\nNominal bit rate : 112 Kbps\nChannel(s) : 2 channels\nSampling rate : 48.0 KHz\nStream size : 67.5 MiB (10%)\nAlignment : Aligned on interleaves\nInterleave, duration : 24 ms (0.58 video frame)\nInterleave, preload duration : 539 ms\nWriting library : LAME3.97 \n\nIMDB &lt;a href=&quot;\nhttp://www.imdb.com/title/tt1436034/&quot; rel=&quot;nofollow&quot; target=&quot;_NEW&quot;&gt;\nhttp://www.imdb.com/title/tt1436034/&lt;/a&gt;","torrent":{"xt":"urn:btih:1200ee052149f382ca867277e88e5b9007c341e9","amp;dn":"Legacy+%282010%29+DvdRip+%5BXvid%5D+%7B1337x%7D+-X","amp;tr":["udp%3A%2F%2Ftracker.openbittorrent.com%3A80","udp%3A%2F%2Fopen.demonii.com%3A1337","udp%3A%2F%2Ftracker.coppersurfer.tk%3A6969","udp%3A%2F%2Fexodus.desync.com%3A6969"],"infoHash":"1200ee052149f382ca867277e88e5b9007c341e9","infoHashBuffer":{"type":"Buffer","data":[18,0,238,5,33,73,243,130,202,134,114,119,232,142,91,144,7,195,65,233]},"announce":[],"urlList":[]}}